{"title":"BattleShip.2012.REPACK.TS.XviD.AC3-ADTRG","uid":7299329,"size":1640097160,"categoryP":"video","categoryS":"movies","magnet":"?xt=urn:btih:703ddce00a60bc3d7ecf6ce8ebbd373fc50dc200&amp;dn=BattleShip.2012.REPACK.TS.XviD.AC3-ADTRG&amp;tr=udp%3A%2F%2Ftracker.openbittorrent.com%3A80&amp;tr=udp%3A%2F%2Fopen.demonii.com%3A1337&amp;tr=udp%3A%2F%2Ftracker.coppersurfer.tk%3A6969&amp;tr=udp%3A%2F%2Fexodus.desync.com%3A6969","seeders":11,"leechers":1,"uploader":"maximersk","files":4,"time":1337984547,"description":"BattleShip.2012.REPACK.TS.XviD.AC3-ADTRG\n\n\n\n\n\nA fleet of ships is forced to do battle with an armada of unknown origins in order to discover and thwart their destructive goals. \n &lt;a href=&quot;\nhttp://www.imdb.com/title/tt1440129/&quot; rel=&quot;nofollow&quot; target=&quot;_NEW&quot;&gt;\nhttp://www.imdb.com/title/tt1440129/&lt;/a&gt;\n\nSource - 720p Cam SMY Thanks\nSource - missing scenes - Twix Thanks\nSource - LiNe Audio - Dragon Exclusive Thanks, awesome work bro\n\nComplete name : BattleShip.2012.REPACK.TS.XViD.AC3-ADTRG.avi\nFormat : AVI\nFormat/Info : Audio Video Interleave\nFile size : 1.52 GiB\nDuration : 2h 0mn\nOverall bit rate : 1 805 Kbps\nWriting library : VirtualDub build 34703/release\n\nVideo\nID : 0\nFormat : MPEG-4 Visual\nCodec ID : XVID\nBit rate : 1 604 Kbps\nWidth : 720 pixels\nHeight : 320 pixels\nDisplay aspect ratio : 2.25:1\nFrame rate : 30.000 fps\nStream size : 1.35 GiB (89%)\n\nAudio\nID : 1\nFormat : AC-3\nBit rate : 192 Kbps\nChannel(s) : 2 channels\nChannel positions : Front: L R\nSampling rate : 48.0 KHz\nStream size : 163 MiB (11%)\n\n\nEncoder - LiMeY\nK, i dropped the ball on first one, played fine on laptop, not so fine on WDTV.\nremoved long black screen at beginning , a few dupe frames and synced for your viewing pleasure.\nmight still be a few 1 second glitches on joins but at least 99% synced so enjoy.\n\n\nGood things come in small packages, So feel the wrath of my compression","torrent":{"xt":"urn:btih:703ddce00a60bc3d7ecf6ce8ebbd373fc50dc200","amp;dn":"BattleShip.2012.REPACK.TS.XviD.AC3-ADTRG","amp;tr":["udp%3A%2F%2Ftracker.openbittorrent.com%3A80","udp%3A%2F%2Fopen.demonii.com%3A1337","udp%3A%2F%2Ftracker.coppersurfer.tk%3A6969","udp%3A%2F%2Fexodus.desync.com%3A6969"],"infoHash":"703ddce00a60bc3d7ecf6ce8ebbd373fc50dc200","infoHashBuffer":{"type":"Buffer","data":[112,61,220,224,10,96,188,61,126,207,108,232,235,189,55,63,197,13,194,0]},"announce":[],"urlList":[]}}